<svg width="24" height="24" viewBox="0 0 24 24" fill="none" xmlns="http://www.w3.org/2000/svg"><path d="M15.87 8.16C14.63 8.16 13.62 7.15 13.62 5.91C13.62 4.67 14.63 3.66 15.87 3.66C17.11 3.66 18.12 4.67 18.12 5.91C18.12 7.15 17.11 8.16 15.87 8.16ZM15.87 5.16C15.46 5.16 15.12 5.5 15.12 5.91C15.12 6.32 15.46 6.66 15.87 6.66C16.28 6.66 16.62 6.32 16.62 5.91C16.62 5.5 16.28 5.16 15.87 5.16Z" fill="#666666" class="icon_svg-fill_as_stroke"/><path d="M10.45 6.33C9.21 6.33 8.2 5.32 8.2 4.08C8.2 2.84 9.21 1.83 10.45 1.83C11.69 1.83 12.7 2.84 12.7 4.08C12.7 5.32 11.69 6.33 10.45 6.33ZM10.45 3.33C10.04 3.33 9.7 3.67 9.7 4.08C9.7 4.49 10.04 4.83 10.45 4.83C10.86 4.83 11.2 4.5 11.2 4.08C11.2 3.66 10.86 3.33 10.45 3.33Z" fill="#666666" class="icon_svg-fill_as_stroke"/><path d="M5.60001 10.33C4.36001 10.33 3.35001 9.31999 3.35001 8.07999C3.35001 6.83999 4.36001 5.82999 5.60001 5.82999C6.84001 5.82999 7.85001 6.83999 7.85001 8.07999C7.85001 9.31999 6.84001 10.33 5.60001 10.33ZM5.60001 7.32999C5.19001 7.32999 4.85001 7.66999 4.85001 8.07999C4.85001 8.48999 5.19001 8.82999 5.60001 8.82999C6.01001 8.82999 6.35001 8.49999 6.35001 8.07999C6.35001 7.65999 6.01001 7.32999 5.60001 7.32999Z" fill="#666666" class="icon_svg-fill_as_stroke"/><path d="M17.19 20.65L11.12 8.09999C10.87 7.57999 10.02 7.57999 9.77 8.09999L8.41 10.91C8.86 11.22 9.23 11.6 9.54 12.01L10.44 10.15L15.31 20.22H10.44V20.97C10.44 21.23 10.44 21.48 10.4 21.72H16.5C16.76 21.72 17 21.59 17.14 21.37C17.28 21.15 17.3 20.88 17.19 20.65Z" fill="#666666" class="icon_svg-fill_as_stroke"/><path d="M15.87 8.95999C15.01 8.95999 14.19 9.12999 13.44 9.43999L14.1 10.8C14.65 10.58 15.25 10.45 15.87 10.45C18.56 10.45 20.75 12.64 20.75 15.33C20.75 17.12 19.76 18.68 18.32 19.53L18.54 20C18.7 20.33 18.79 20.63 18.86 20.98C20.87 19.91 22.25 17.79 22.25 15.35C22.25 11.83 19.39 8.95999 15.87 8.95999Z" fill="#666666" class="icon_svg-fill_as_stroke"/><path d="M8.2 21.72H3C2.59 21.72 2.25 21.38 2.25 20.97V14.52C2.25 13.28 3.41 11.56 5.6 11.56C7.79 11.56 8.95 13.28 8.95 14.52V20.97C8.95 21.39 8.61 21.72 8.2 21.72ZM3.75 20.22H7.45V14.52C7.45 14.02 6.89 13.06 5.6 13.06C4.31 13.06 3.75 14.03 3.75 14.52V20.22Z" fill="#666666" class="icon_svg-fill_as_stroke"/></svg>